<?xml version="1.0" encoding="utf-8"?>
<!-- Generator: Adobe Illustrator 15.0.0, SVG Export Plug-In . SVG Version: 6.00 Build 0)  -->
<!DOCTYPE svg PUBLIC "-//W3C//DTD SVG 1.1//EN" "http://www.w3.org/Graphics/SVG/1.1/DTD/svg11.dtd">
<svg version="1.1" id="Layer_1" xmlns="http://www.w3.org/2000/svg" xmlns:xlink="http://www.w3.org/1999/xlink" x="0px" y="0px"
	 width="668px" height="668.224px" viewBox="0 0 668 668.224" enable-background="new 0 0 668 668.224" xml:space="preserve">
<g>
	<path fill="#FFFFFF" stroke="#000000" stroke-width="24" stroke-miterlimit="9" d="M159.3,193.676
		c33.698-20.316,68.03-39.948,102.73-58.28c58.204-30.734,125.065-33.309,190.062-43.998c37.258-6.127,74.412-12.456,111.844-17.734
		c-41.947,27.807-85.234,56.15-132.904,75.67c-47.055,19.286-97.428,30.709-147.082,43.249
		c-62.238,15.709-126.71,32.261-190.438,42.018C115.128,220.777,137.073,207.067,159.3,193.676z"/>
	<path fill="#FFFFFF" stroke="#000000" stroke-width="24" stroke-miterlimit="9" d="M141.583,433.824
		c39.201-23.081,79.138-45.387,119.511-66.225c67.716-34.957,145.603-38.223,221.286-50.622
		c43.387-7.106,86.652-14.44,130.242-20.591c-48.785,31.563-99.137,63.736-154.611,85.993
		c-54.762,21.985-113.412,35.143-171.223,49.532c-72.456,18.042-147.517,37.044-221.731,48.384
		C90.201,464.602,115.729,449.033,141.583,433.824z"/>
	<path fill="#FFFFFF" stroke="#000000" stroke-width="24" stroke-miterlimit="9" d="M181.176,537.084
		c34.342-20.188,69.293-39.647,104.57-57.72c59.172-30.317,126.084-30.737,191.393-39.749
		c37.434-5.166,74.777-10.548,112.359-14.814c-42.826,27.789-87.018,56.099-135.291,74.984
		c-47.66,18.661-98.377,28.951-148.414,40.424c-62.715,14.385-127.691,29.574-191.703,37.646
		C136.145,564.07,158.524,550.413,181.176,537.084z"/>
	<path fill="#FFFFFF" stroke="#000000" stroke-width="24" stroke-miterlimit="9" d="M475.365,573.299
		c0.461-25.521-4.158-110.042-5.195-135.365c-1.01-24.627-1.219-49.281-1.986-73.918c-0.949-30.385-0.998-50.764,4.752-80.905
		c5.475-28.705,29.332-42.463,52.68-56.396c28.1-16.769,54.699-35.911,82.162-53.678c-43.592,6.149-86.855,13.483-130.24,20.585
		c-75.688,12.405-153.572,15.661-221.289,50.619c-40.371,20.846-80.309,43.153-119.51,66.232
		c-25.856,15.21-51.384,30.77-76.525,46.469c74.212-11.337,149.273-30.342,221.735-48.382c28.869-7.188,55.486-20.676,55.432,17.936
		c-0.023,18.535-16.732,110.623,18.012,103.52c24.064-4.922,12.543-87.367,12.752-105.348c0.396-34.493,48.025-79.892,61.432-28.409
		c0.449,1.733,0.826,3.361,1.145,4.806c4.771,21.891,4.643,44.521,5.434,66.735c0.918,25.712,1.842,51.421,2.77,77.131
		c0.914,25.408-2.715,111.214,2.064,136.367c1.533,8.069,4.77,27.025,20.1,22.29C473.061,599.889,475.215,581.554,475.365,573.299z"
		/>
</g>
</svg>
